<svg width="256" height="256" viewBox="0 0 256 256" fill="none" xmlns="http://www.w3.org/2000/svg">
  <rect width="256" height="256" rx="64" fill="#050816"/>
  <rect x="20" y="20" width="216" height="216" rx="52" fill="url(#paint0_linear)"/>
  <path d="M73 172V84H123.88C140.69 84 151.5 92.39 151.5 106.43C151.5 116.2 146.11 123.34 137.02 126.19V127.11C148.15 129.2 155.1 137.43 155.1 149.12C155.1 164.09 143.17 172 124.8 172H73ZM97.39 119.68H118.94C125.41 119.68 129.53 116.36 129.53 110.62C129.53 104.89 125.57 101.48 118.87 101.48H97.39V119.68ZM97.39 154.52H121.29C129.56 154.52 134.28 150.96 134.28 144.36C134.28 137.84 129.4 134.11 121.06 134.11H97.39V154.52Z" fill="#F8FAFC"/>
  <path d="M171.1 95.9L186.4 111.2L171.1 126.5" stroke="#67E8F9" stroke-width="14" stroke-linecap="round" stroke-linejoin="round"/>
  <defs>
    <linearGradient id="paint0_linear" x1="32" y1="28" x2="220" y2="228" gradientUnits="userSpaceOnUse">
      <stop stop-color="#0B1124"/>
      <stop offset="0.45" stop-color="#312E81"/>
      <stop offset="1" stop-color="#0EA5E9"/>
    </linearGradient>
  </defs>
</svg>
