<svg width="256" height="256" viewBox="0 0 256 256" fill="none" xmlns="http://www.w3.org/2000/svg">
  <g stroke="#40A9D8" stroke-width="8" stroke-linecap="round" stroke-linejoin="round">
    <line x1="128" y1="128" x2="128" y2="48" />
    <line x1="128" y1="128" x2="184.6" y2="71.4" />
    <line x1="128" y1="128" x2="208" y2="128" />
    <line x1="128" y1="128" x2="184.6" y2="184.6" />
    <line x1="128" y1="128" x2="128" y2="208" />
    <line x1="128" y1="128" x2="71.4" y2="184.6" />
    <line x1="128" y1="128" x2="48" y2="128" />
    <line x1="128" y1="128" x2="71.4" y2="71.4" />
    <circle cx="128" cy="128" r="16" />
    <circle cx="128" cy="48" r="14" />
    <circle cx="184.6" cy="71.4" r="14" />
    <circle cx="208" cy="128" r="14" />
    <circle cx="184.6" cy="184.6" r="14" />
    <circle cx="128" cy="208" r="14" />
    <circle cx="71.4" cy="184.6" r="14" />
    <circle cx="48" cy="128" r="14" />
    <circle cx="71.4" cy="71.4" r="14" />
  </g>
</svg>
